<mxfile host="app.diagrams.net" modified="2024-04-15T15:40:19.437Z" agent="Mozilla/5.0 (Windows NT 10.0; Win64; x64) AppleWebKit/537.36 (KHTML, like Gecko) Chrome/123.0.0.0 Safari/537.36" etag="5kKwQ6wspOsJEDXiUYwE" version="24.2.5" type="github">
  <diagram name="Page-1" id="2YBvvXClWsGukQMizWep">
    <mxGraphModel dx="794" dy="446" grid="1" gridSize="10" guides="1" tooltips="1" connect="1" arrows="1" fold="1" page="1" pageScale="1" pageWidth="850" pageHeight="1100" math="0" shadow="0">
      <root>
        <mxCell id="0" />
        <mxCell id="1" parent="0" />
        <mxCell id="aM9ryv3xv72pqoxQDRHE-1" value="User" style="shape=umlLifeline;perimeter=lifelinePerimeter;whiteSpace=wrap;html=1;container=0;dropTarget=0;collapsible=0;recursiveResize=0;outlineConnect=0;portConstraint=eastwest;newEdgeStyle={&quot;edgeStyle&quot;:&quot;elbowEdgeStyle&quot;,&quot;elbow&quot;:&quot;vertical&quot;,&quot;curved&quot;:0,&quot;rounded&quot;:0};" parent="1" vertex="1">
          <mxGeometry x="40" y="40" width="100" height="300" as="geometry" />
        </mxCell>
        <mxCell id="aM9ryv3xv72pqoxQDRHE-5" value="Model" style="shape=umlLifeline;perimeter=lifelinePerimeter;whiteSpace=wrap;html=1;container=0;dropTarget=0;collapsible=0;recursiveResize=0;outlineConnect=0;portConstraint=eastwest;newEdgeStyle={&quot;edgeStyle&quot;:&quot;elbowEdgeStyle&quot;,&quot;elbow&quot;:&quot;vertical&quot;,&quot;curved&quot;:0,&quot;rounded&quot;:0};" parent="1" vertex="1">
          <mxGeometry x="220" y="40" width="100" height="300" as="geometry" />
        </mxCell>
        <mxCell id="DtPNEOPhcOIuzaQkd96E-1" value="Server" style="shape=umlLifeline;perimeter=lifelinePerimeter;whiteSpace=wrap;html=1;container=0;dropTarget=0;collapsible=0;recursiveResize=0;outlineConnect=0;portConstraint=eastwest;newEdgeStyle={&quot;edgeStyle&quot;:&quot;elbowEdgeStyle&quot;,&quot;elbow&quot;:&quot;vertical&quot;,&quot;curved&quot;:0,&quot;rounded&quot;:0};" parent="1" vertex="1">
          <mxGeometry x="360" y="40" width="100" height="300" as="geometry" />
        </mxCell>
        <mxCell id="DtPNEOPhcOIuzaQkd96E-2" value="" style="endArrow=classic;html=1;rounded=0;" parent="1" target="aM9ryv3xv72pqoxQDRHE-5" edge="1">
          <mxGeometry width="50" height="50" relative="1" as="geometry">
            <mxPoint x="90" y="120" as="sourcePoint" />
            <mxPoint x="160" y="280" as="targetPoint" />
          </mxGeometry>
        </mxCell>
        <mxCell id="DtPNEOPhcOIuzaQkd96E-3" value="1. User Opens App" style="edgeLabel;html=1;align=center;verticalAlign=middle;resizable=0;points=[];" parent="DtPNEOPhcOIuzaQkd96E-2" vertex="1" connectable="0">
          <mxGeometry x="-0.0306" y="2" relative="1" as="geometry">
            <mxPoint y="-8" as="offset" />
          </mxGeometry>
        </mxCell>
        <mxCell id="DtPNEOPhcOIuzaQkd96E-4" value="" style="endArrow=classic;html=1;rounded=0;" parent="1" target="DtPNEOPhcOIuzaQkd96E-1" edge="1">
          <mxGeometry width="50" height="50" relative="1" as="geometry">
            <mxPoint x="270" y="120" as="sourcePoint" />
            <mxPoint x="320" y="70" as="targetPoint" />
          </mxGeometry>
        </mxCell>
        <mxCell id="DtPNEOPhcOIuzaQkd96E-7" value="2. getSessionInfo()" style="edgeLabel;html=1;align=center;verticalAlign=middle;resizable=0;points=[];" parent="DtPNEOPhcOIuzaQkd96E-4" vertex="1" connectable="0">
          <mxGeometry x="-0.0824" y="2" relative="1" as="geometry">
            <mxPoint y="-8" as="offset" />
          </mxGeometry>
        </mxCell>
        <mxCell id="DtPNEOPhcOIuzaQkd96E-8" value="" style="endArrow=classic;html=1;rounded=0;dashed=1;" parent="1" target="aM9ryv3xv72pqoxQDRHE-5" edge="1">
          <mxGeometry width="50" height="50" relative="1" as="geometry">
            <mxPoint x="410" y="160" as="sourcePoint" />
            <mxPoint x="460" y="110" as="targetPoint" />
          </mxGeometry>
        </mxCell>
        <mxCell id="DtPNEOPhcOIuzaQkd96E-9" value="3. Server returns info" style="edgeLabel;html=1;align=center;verticalAlign=middle;resizable=0;points=[];" parent="DtPNEOPhcOIuzaQkd96E-8" vertex="1" connectable="0">
          <mxGeometry x="0.1341" y="1" relative="1" as="geometry">
            <mxPoint x="9" y="-11" as="offset" />
          </mxGeometry>
        </mxCell>
        <mxCell id="DtPNEOPhcOIuzaQkd96E-10" value="" style="endArrow=classic;html=1;rounded=0;dashed=1;" parent="1" target="aM9ryv3xv72pqoxQDRHE-1" edge="1">
          <mxGeometry width="50" height="50" relative="1" as="geometry">
            <mxPoint x="270" y="160" as="sourcePoint" />
            <mxPoint x="320" y="110" as="targetPoint" />
          </mxGeometry>
        </mxCell>
        <mxCell id="DtPNEOPhcOIuzaQkd96E-11" value="4. Model returns sessions" style="edgeLabel;html=1;align=center;verticalAlign=middle;resizable=0;points=[];" parent="DtPNEOPhcOIuzaQkd96E-10" vertex="1" connectable="0">
          <mxGeometry x="0.3709" y="1" relative="1" as="geometry">
            <mxPoint x="33" y="-11" as="offset" />
          </mxGeometry>
        </mxCell>
        <mxCell id="DtPNEOPhcOIuzaQkd96E-12" value="" style="endArrow=classic;html=1;rounded=0;" parent="1" edge="1">
          <mxGeometry width="50" height="50" relative="1" as="geometry">
            <mxPoint x="90" y="200" as="sourcePoint" />
            <mxPoint x="270" y="200" as="targetPoint" />
          </mxGeometry>
        </mxCell>
        <mxCell id="DtPNEOPhcOIuzaQkd96E-14" value="5. User joins session" style="edgeLabel;html=1;align=center;verticalAlign=middle;resizable=0;points=[];" parent="DtPNEOPhcOIuzaQkd96E-12" vertex="1" connectable="0">
          <mxGeometry x="-0.1023" y="-1" relative="1" as="geometry">
            <mxPoint x="9" y="-11" as="offset" />
          </mxGeometry>
        </mxCell>
        <mxCell id="DtPNEOPhcOIuzaQkd96E-16" value="" style="endArrow=classic;html=1;rounded=0;" parent="1" target="DtPNEOPhcOIuzaQkd96E-1" edge="1">
          <mxGeometry width="50" height="50" relative="1" as="geometry">
            <mxPoint x="270" y="200" as="sourcePoint" />
            <mxPoint x="320" y="150" as="targetPoint" />
          </mxGeometry>
        </mxCell>
        <mxCell id="DtPNEOPhcOIuzaQkd96E-17" value="6. updateServer()" style="edgeLabel;html=1;align=center;verticalAlign=middle;resizable=0;points=[];" parent="DtPNEOPhcOIuzaQkd96E-16" vertex="1" connectable="0">
          <mxGeometry x="-0.1398" y="1" relative="1" as="geometry">
            <mxPoint x="10" y="-9" as="offset" />
          </mxGeometry>
        </mxCell>
        <mxCell id="DtPNEOPhcOIuzaQkd96E-19" value="OtherUser" style="shape=umlLifeline;perimeter=lifelinePerimeter;whiteSpace=wrap;html=1;container=0;dropTarget=0;collapsible=0;recursiveResize=0;outlineConnect=0;portConstraint=eastwest;newEdgeStyle={&quot;edgeStyle&quot;:&quot;elbowEdgeStyle&quot;,&quot;elbow&quot;:&quot;vertical&quot;,&quot;curved&quot;:0,&quot;rounded&quot;:0};" parent="1" vertex="1">
          <mxGeometry x="510" y="40" width="100" height="300" as="geometry" />
        </mxCell>
        <mxCell id="DtPNEOPhcOIuzaQkd96E-20" value="" style="endArrow=classic;html=1;rounded=0;" parent="1" target="DtPNEOPhcOIuzaQkd96E-19" edge="1">
          <mxGeometry width="50" height="50" relative="1" as="geometry">
            <mxPoint x="410" y="200" as="sourcePoint" />
            <mxPoint x="460" y="150" as="targetPoint" />
          </mxGeometry>
        </mxCell>
        <mxCell id="DtPNEOPhcOIuzaQkd96E-21" value="7. Server Alerts users" style="edgeLabel;html=1;align=center;verticalAlign=middle;resizable=0;points=[];" parent="DtPNEOPhcOIuzaQkd96E-20" vertex="1" connectable="0">
          <mxGeometry x="-0.1209" relative="1" as="geometry">
            <mxPoint x="4" y="-10" as="offset" />
          </mxGeometry>
        </mxCell>
        <mxCell id="DtPNEOPhcOIuzaQkd96E-22" value="" style="endArrow=classic;html=1;rounded=0;" parent="1" target="aM9ryv3xv72pqoxQDRHE-5" edge="1">
          <mxGeometry width="50" height="50" relative="1" as="geometry">
            <mxPoint x="410" y="240" as="sourcePoint" />
            <mxPoint x="460" y="190" as="targetPoint" />
          </mxGeometry>
        </mxCell>
        <mxCell id="DtPNEOPhcOIuzaQkd96E-23" value="8. Session ends" style="edgeLabel;html=1;align=center;verticalAlign=middle;resizable=0;points=[];" parent="DtPNEOPhcOIuzaQkd96E-22" vertex="1" connectable="0">
          <mxGeometry x="0.1668" y="-2" relative="1" as="geometry">
            <mxPoint x="12" y="-8" as="offset" />
          </mxGeometry>
        </mxCell>
        <mxCell id="DtPNEOPhcOIuzaQkd96E-24" value="" style="endArrow=classic;html=1;rounded=0;dashed=1;" parent="1" target="aM9ryv3xv72pqoxQDRHE-1" edge="1">
          <mxGeometry width="50" height="50" relative="1" as="geometry">
            <mxPoint x="270" y="270" as="sourcePoint" />
            <mxPoint x="320" y="220" as="targetPoint" />
          </mxGeometry>
        </mxCell>
        <mxCell id="DtPNEOPhcOIuzaQkd96E-25" value="9. Notify Users" style="edgeLabel;html=1;align=center;verticalAlign=middle;resizable=0;points=[];" parent="DtPNEOPhcOIuzaQkd96E-24" vertex="1" connectable="0">
          <mxGeometry x="0.0662" y="-1" relative="1" as="geometry">
            <mxPoint as="offset" />
          </mxGeometry>
        </mxCell>
        <mxCell id="DtPNEOPhcOIuzaQkd96E-26" value="" style="endArrow=classic;html=1;rounded=0;dashed=1;" parent="1" edge="1">
          <mxGeometry width="50" height="50" relative="1" as="geometry">
            <mxPoint x="269.92857142857144" y="280" as="sourcePoint" />
            <mxPoint x="559.5" y="280" as="targetPoint" />
          </mxGeometry>
        </mxCell>
        <mxCell id="DtPNEOPhcOIuzaQkd96E-27" value="9. Notify Users" style="edgeLabel;html=1;align=center;verticalAlign=middle;resizable=0;points=[];" parent="DtPNEOPhcOIuzaQkd96E-26" vertex="1" connectable="0">
          <mxGeometry x="0.0662" y="-1" relative="1" as="geometry">
            <mxPoint as="offset" />
          </mxGeometry>
        </mxCell>
      </root>
    </mxGraphModel>
  </diagram>
</mxfile>
